<?xml version="1.0" encoding="UTF-8"?>
<svg version="1.1" xmlns="http://www.w3.org/2000/svg" width="478" height="82">
<path d="M0 0 C0.66 0 1.32 0 2 0 C2.67154933 1.28913487 3.33708859 2.58140204 4 3.875 C4.37125 4.59429688 4.7425 5.31359375 5.125 6.0546875 C6 8 6 8 6 10 C7.50626953 9.94779297 7.50626953 9.94779297 9.04296875 9.89453125 C31.00951833 9.36277772 31.00951833 9.36277772 38.75 15.5625 C41.16054081 18.17391922 41.87992036 19.15944253 42.375 22.625 C41.49691086 30.52780227 35.91094433 35.3377209 30.0859375 40.23828125 C28.29152138 41.75378999 26.63058903 43.31228843 25 45 C26.05744122 47.8833335 27.17836349 50.51499297 29 53 C32.58863524 54.0615942 32.58863524 54.0615942 36 54 C36.33 54.33 36.66 54.66 37 55 C39.48341801 55.21110519 41.94956713 55.37594795 44.4375 55.5 C51.73142415 55.86571207 51.73142415 55.86571207 54 57 C53.62441948 59.52412204 53.12765829 60.85074296 51.453125 62.80859375 C45.81812353 66.97489803 41.5270942 67.21821842 34.78808594 66.34008789 C30.50450656 65.65619427 26.24570684 64.8894539 22 64 C21.67 63.01 21.34 62.02 21 61 C18.36 61.66 15.72 62.32 13 63 C13 63.66 13 64.32 13 65 C13.63164063 64.97679688 14.26328125 64.95359375 14.9140625 64.9296875 C22.69018928 64.77282039 30.38937216 65.3225555 38 67 C38.66 67.66 39.32 68.32 40 69 C37.54405205 70.98214165 35.08484507 72.96019753 32.625 74.9375 C31.57699219 75.78344727 31.57699219 75.78344727 30.5078125 76.64648438 C29.8375 77.18466797 29.1671875 77.72285156 28.4765625 78.27734375 C27.85861816 78.77484131 27.24067383 79.27233887 26.60400391 79.78491211 C21.2142583 83.86782899 12.99924436 82.4936542 6.57910156 81.70117188 C1.36313733 80.92557891 -3.82026802 79.98661562 -9 79 C-9 78.34 -9 77.68 -9 77 C-9.99 77.33 -10.98 77.66 -12 78 C-14.08129883 77.61035156 -14.08129883 77.61035156 -16.45703125 76.890625 C-17.32263672 76.63023438 -18.18824219 76.36984375 -19.08007812 76.1015625 C-19.98177734 75.82054688 -20.88347656 75.53953125 -21.8125 75.25 C-22.70259766 74.98445313 -23.59269531 74.71890625 -24.50976562 74.4453125 C-29.26463105 72.99312232 -33.6395328 71.39285142 -38 69 C-35.82575883 66.49962266 -34.26954202 65.56371414 -31 65 C-33.9698131 64.79124991 -33.9698131 64.79124991 -36.3125 66.0625 C-39.8092643 67.2823015 -41.43036344 67.02970285 -45 66 C-48.08161829 64.46424269 -51.05111854 62.77588194 -54 61 C-53.34741211 59.10644531 -53.34741211 59.10644531 -52 57 C-49.52563477 55.99511719 -49.52563477 55.99511719 -46.44140625 55.296875 C-45.33345703 55.0390625 -44.22550781 54.78125 -43.08398438 54.515625 C-41.92189453 54.26296875 -40.75980469 54.0103125 -39.5625 53.75 C-38.40427734 53.481875 -37.24605469 53.21375 -36.05273438 52.9375 C-27.54651626 51 -27.54651626 51 -24 51 C-23.690625 50.05125 -23.38125 49.1025 -23.0625 48.125 C-22 45 -22 45 -21 43 C-22.62808594 43.05220703 -22.62808594 43.05220703 -24.2890625 43.10546875 C-25.73435942 43.13362388 -27.17967321 43.16092219 -28.625 43.1875 C-29.33785156 43.21263672 -30.05070312 43.23777344 -30.78515625 43.26367188 C-35.59158644 43.32981541 -38.84261124 42.67991676 -43 40 C-44.22584856 37.08860966 -44.13674188 35.54696754 -43.375 32.5 C-37.33239281 21.51344147 -23.36498986 16.17503981 -12 12.6875 C-9 12 -9 12 -5 12 C-4.9175 11.319375 -4.835 10.63875 -4.75 9.9375 C-3.77667472 6.1253093 -2.04192545 3.35929671 0 0 Z M9 14 C10.49359485 18.84286815 12.45033567 23.31350896 14.625 27.875 C14.94984375 28.56335937 15.2746875 29.25171875 15.609375 29.9609375 C16.40323472 31.64205219 17.20119558 33.32122921 18 35 C22.89156738 32.74155293 26.0183179 29.47252315 29 25 C28.91546429 21.0268215 28.5033138 19.4900687 25.625 16.6875 C21.70135226 14.16515503 18.88050116 13.88375881 14.3125 13.9375 C13.31863281 13.94652344 12.32476562 13.95554687 11.30078125 13.96484375 C10.54152344 13.97644531 9.78226563 13.98804688 9 14 Z M-32.234375 29.71875 C-34.17602448 31.87699255 -34.17602448 31.87699255 -34.515625 34.59375 C-34.20009176 37.09743582 -34.20009176 37.09743582 -32.328125 38.73828125 C-29.76589763 40.12687091 -27.61698861 40.69709405 -24.75 41.1875 C-23.41195313 41.42533203 -23.41195313 41.42533203 -22.046875 41.66796875 C-21.37140625 41.77753906 -20.6959375 41.88710938 -20 42 C-19.45730469 40.91460937 -18.91460937 39.82921875 -18.35546875 38.7109375 C-16.91796875 35.8359375 -15.48046875 32.9609375 -14.04296875 30.0859375 C-13.6979834 29.39338867 -13.35299805 28.70083984 -12.99755859 27.98730469 C-12.09263065 26.18453586 -11.16662702 24.39238471 -10.23828125 22.6015625 C-8.85674144 20.17922591 -8.85674144 20.17922591 -9 18 C-18.05725986 18 -25.77882189 23.95341326 -32.234375 29.71875 Z M0 19 C-1.85626755 22.94874591 -3.7075463 26.89977927 -5.55419922 30.85302734 C-6.18335916 32.1980719 -6.81388766 33.54247718 -7.44580078 34.88623047 C-8.35287658 36.81572451 -9.25503611 38.74744993 -10.15625 40.6796875 C-10.70087891 41.84226074 -11.24550781 43.00483398 -11.80664062 44.20263672 C-13.13079599 46.79972092 -13.13079599 46.79972092 -13 49 C-6.48310213 49.43835636 -2.46243837 48.31256202 3.25 45.25 C3.94351563 44.90195312 4.63703125 44.55390625 5.3515625 44.1953125 C9.15868674 42.22611031 12.14063076 40.27206171 15 37 C13.35 37.33 11.7 37.66 10 38 C9.73445313 37.15179688 9.46890625 36.30359375 9.1953125 35.4296875 C7.95559534 31.87259054 6.47517384 28.53406601 4.875 25.125 C4.33617188 23.97257812 3.79734375 22.82015625 3.2421875 21.6328125 C2.83226562 20.76398437 2.42234375 19.89515625 2 19 C1.34 19 0.68 19 0 19 Z M16 35 C15.67 35.66 15.34 36.32 15 37 C15.99 36.67 16.98 36.34 18 36 C17.34 35.67 16.68 35.34 16 35 Z M11 52 C12.98 52 14.96 52 17 52 C16.67 51.01 16.34 50.02 16 49 C14.03177114 49 12.49471455 50.84280164 11 52 Z M-1 71 C-1.33 71.66 -1.66 72.32 -2 73 C-1.01 72.67 -0.02 72.34 1 72 C0.34 71.67 -0.32 71.34 -1 71 Z M-6 74 C-6.99 74.99 -7.98 75.98 -9 77 C-7.35 76.34 -5.7 75.68 -4 75 C-4.66 74.67 -5.32 74.34 -6 74 Z " fill="#166D9A" transform="translate(54,0)"/>
<path d="M0 0 C1.32 2.64 2.64 5.28 4 8 C0.81237635 10.12508244 -1.26512223 10.5020163 -5 11 C-5 11.66 -5 12.32 -5 13 C-4.05253906 12.96519531 -4.05253906 12.96519531 -3.0859375 12.9296875 C4.69018928 12.77282039 12.38937216 13.3225555 20 15 C20.99 15.99 20.99 15.99 22 17 C19.54405205 18.98214165 17.08484507 20.96019753 14.625 22.9375 C13.57699219 23.78344727 13.57699219 23.78344727 12.5078125 24.64648438 C11.8375 25.18466797 11.1671875 25.72285156 10.4765625 26.27734375 C9.85861816 26.77484131 9.24067383 27.27233887 8.60400391 27.78491211 C3.2142583 31.86782899 -5.00075564 30.4936542 -11.42089844 29.70117188 C-16.63686267 28.92557891 -21.82026802 27.98661562 -27 27 C-27 26.34 -27 25.68 -27 25 C-27.99 25.33 -28.98 25.66 -30 26 C-32.08129883 25.61035156 -32.08129883 25.61035156 -34.45703125 24.890625 C-35.32263672 24.63023438 -36.18824219 24.36984375 -37.08007812 24.1015625 C-37.98177734 23.82054688 -38.88347656 23.53953125 -39.8125 23.25 C-40.70259766 22.98445313 -41.59269531 22.71890625 -42.50976562 22.4453125 C-47.26463105 20.99312232 -51.6395328 19.39285142 -56 17 C-53.40869761 13.79042196 -50.73035712 13.11297262 -46.8125 12.0625 C-45.575 11.72605469 -44.3375 11.38960937 -43.0625 11.04296875 C-40.25571973 10.31306829 -37.44244593 9.61328302 -34.625 8.92578125 C-33.90594482 8.74974365 -33.18688965 8.57370605 -32.44604492 8.39233398 C-31.04678947 8.05304776 -29.64593066 7.72029299 -28.2434082 7.39477539 C-24.99296793 6.61658151 -22.81844044 5.87896029 -20 4 C-13.12837966 0.54527711 -7.66530027 -0.43801716 0 0 Z M-19 19 C-19.33 19.66 -19.66 20.32 -20 21 C-19.01 20.67 -18.02 20.34 -17 20 C-17.66 19.67 -18.32 19.34 -19 19 Z M-24 22 C-24.99 22.99 -25.98 23.98 -27 25 C-25.35 24.34 -23.7 23.68 -22 23 C-22.66 22.67 -23.32 22.34 -24 22 Z " fill="#E0A618" transform="translate(72,52)"/>
<path d="M0 0 C3.3 0.66 6.6 1.32 10 2 C10.33 1.34 10.66 0.68 11 0 C13.97 0.495 13.97 0.495 17 1 C16.67 2.65 16.34 4.3 16 6 C17.32 5.34 18.64 4.68 20 4 C20.99 4.66 21.98 5.32 23 6 C23 6.66 23 7.32 23 8 C22.34 8 21.68 8 21 8 C20.90912109 8.90492187 20.90912109 8.90492187 20.81640625 9.828125 C20.73261719 10.62734375 20.64882813 11.4265625 20.5625 12.25 C20.48128906 13.03890625 20.40007812 13.8278125 20.31640625 14.640625 C20 17 20 17 19.33984375 19.171875 C19.22769531 19.77515625 19.11554688 20.3784375 19 21 C21.5654594 23.5654594 23.47686668 23.54046087 27 24 C26.71125 23.46375 26.4225 22.9275 26.125 22.375 C24.83288192 19.64719516 23.91441408 16.87387282 23 14 C24.32 14 25.64 14 27 14 C27 12.35 27 10.7 27 9 C26.01 8.67 25.02 8.34 24 8 C24.99 8 25.98 8 27 8 C27 5.36 27 2.72 27 0 C28.98 0.33 30.96 0.66 33 1 C33 1.99 33 2.98 33 4 C33.33 3.01 33.66 2.02 34 1 C34.66 1.165 35.32 1.33 36 1.5 C40.77198356 2.29533059 45.35632344 2.54789219 50 1 C50.99 1.99 51.98 2.98 53 4 C52.34 5.98 51.68 7.96 51 10 C49.68 10 48.36 10 47 10 C48.98 10.99 50.96 11.98 53 13 C53 13.66 53 14.32 53 15 C51.02 15 49.04 15 47 15 C47 15.99 47 16.98 47 18 C47.804375 18.12375 48.60875 18.2475 49.4375 18.375 C50.7059375 18.684375 50.7059375 18.684375 52 19 C53.53445094 22.06890187 52.54984289 24.70094266 52 28 C50.35 28.33 48.7 28.66 47 29 C47 28.34 47 27.68 47 27 C46.0925 27.33 45.185 27.66 44.25 28 C41 29 41 29 37 29 C36.505 27.515 36.505 27.515 36 26 C35.4740625 26.7425 35.4740625 26.7425 34.9375 27.5 C32.05625711 29.73063966 29.52990974 29.19980621 26 29 C26 28.01 26 27.02 26 26 C23.52733235 26.34444881 23.52733235 26.34444881 21 27 C20.67 27.66 20.34 28.32 20 29 C19.401875 28.690625 18.80375 28.38125 18.1875 28.0625 C15.91043228 26.89790296 15.91043228 26.89790296 13 26 C12.01 26.495 11.02 26.99 10 27.5 C9.01 27.995 8.02 28.49 7 29 C4 28 4 28 2 27 C1.195625 27.33 0.39125 27.66 -0.4375 28 C-3 29 -3 29 -6 28 C-4.35 26.68 -2.7 25.36 -1 24 C-2.32 23.34 -3.64 22.68 -5 22 C-4.67 21.01 -4.34 20.02 -4 19 C-4.66 18.34 -5.32 17.68 -6 17 C-4.68 17 -3.36 17 -2 17 C-2 16.01 -2 15.02 -2 14 C-3.32 14.33 -4.64 14.66 -6 15 C-5 13 -4 11 -3 9 C-3.99 8.34 -4.98 7.68 -6 7 C-5.34 6.67 -4.68 6.34 -4 6 C-4.33 4.35 -4.66 2.7 -5 1 C-3.35 1.33 -1.7 1.66 0 2 C0 1.34 0 0.68 0 0 Z M8 4 C8.66 4.66 9.32 5.32 10 6 C10 5.34 10 4.68 10 4 C9.34 4 8.68 4 8 4 Z M39 4 C39 5.32 39 6.64 39 8 C41.64 8 44.28 8 47 8 C47 6.68 47 5.36 47 4 C44.36 4 41.72 4 39 4 Z M7 8 C8.485 8.99 8.485 8.99 10 10 C10 9.34 10 8.68 10 8 C9.01 8 8.02 8 7 8 Z M14 8 C13.67 9.98 13.34 11.96 13 14 C13.99 14.495 13.99 14.495 15 15 C15.33 12.69 15.66 10.38 16 8 C15.34 8 14.68 8 14 8 Z M32 9 C32 9.99 32 10.98 32 12 C32.66 12 33.32 12 34 12 C34 11.01 34 10.02 34 9 C33.34 9 32.68 9 32 9 Z M39 9 C39 10.65 39 12.3 39 14 C39.99 14 40.98 14 42 14 C42 12.35 42 10.7 42 9 C41.01 9 40.02 9 39 9 Z M4 11 C3.67 12.32 3.34 13.64 3 15 C3.99 15.495 3.99 15.495 5 16 C5.99 15.34 6.98 14.68 8 14 C6.68 13.01 5.36 12.02 4 11 Z M33 14 C31.74050951 15.03406673 31.74050951 15.03406673 31.90234375 17.28515625 C31.91394531 18.20167969 31.92554688 19.11820313 31.9375 20.0625 C31.94652344 20.98160156 31.95554687 21.90070312 31.96484375 22.84765625 C31.97644531 23.55792969 31.98804688 24.26820312 32 25 C34.12999997 21.20960634 34.16702456 18.34263862 34 14 C33.67 14 33.34 14 33 14 Z M10 15 C8.515 18.96 8.515 18.96 7 23 C7.66 23.66 8.32 24.32 9 25 C10.62493901 23.87890434 10.62493901 23.87890434 12 22 C12.25048636 18.87450983 12.25048636 18.87450983 12 16 C11.34 15.67 10.68 15.34 10 15 Z M39 15 C39 16.32 39 17.64 39 19 C39.99 19 40.98 19 42 19 C42 17.68 42 16.36 42 15 C41.01 15 40.02 15 39 15 Z M2 18 C1.67 18.99 1.34 19.98 1 21 C1.66 21 2.32 21 3 21 C3.33 20.01 3.66 19.02 4 18 C3.34 18 2.68 18 2 18 Z M42 21 C42 22.65 42 24.3 42 26 C43.65 26 45.3 26 47 26 C47 24.35 47 22.7 47 21 C45.35 21 43.7 21 42 21 Z " fill="#034487" transform="translate(305,6)"/>
<path d="M0 0 C0.67933594 0.16371094 1.35867188 0.32742187 2.05859375 0.49609375 C5.44549133 1.07631923 8.62738587 1.09556527 12.0625 1.0625 C13.27035156 1.05347656 14.47820312 1.04445313 15.72265625 1.03515625 C16.80417969 1.02355469 17.88570313 1.01195312 19 1 C23 1 23 1 25 2 C24.835 3.11375 24.67 4.2275 24.5 5.375 C23.7936288 9.39577481 23.7936288 9.39577481 25 13 C23.02 13 21.04 13 19 13 C19.33 13.66 19.66 14.32 20 15 C21.32 15 22.64 15 24 15 C24.99 16.485 24.99 16.485 26 18 C25.01 18.33 24.02 18.66 23 19 C23 20.32 23 21.64 23 23 C23.99 23.33 24.98 23.66 26 24 C26 24.66 26 25.32 26 26 C25.34 26 24.68 26 24 26 C23.67 26.99 23.34 27.98 23 29 C19.17902761 28.46930939 16.93828597 27.50298434 14 25 C13.236875 25.66 12.47375 26.32 11.6875 27 C9 29 9 29 6 29 C4 24.125 4 24.125 4 23 C3.21625 23.99 2.4325 24.98 1.625 26 C0.75875 26.99 -0.1075 27.98 -1 29 C-1.66 29 -2.32 29 -3 29 C-2.68289063 27.73285156 -2.36578125 26.46570313 -2.0390625 25.16015625 C-0.87487333 19.92130498 -0.56344058 14.78842741 -0.375 9.4375 C-0.33632813 8.52419922 -0.29765625 7.61089844 -0.2578125 6.66992188 C-0.16469748 4.44680076 -0.07887834 2.22366387 0 0 Z M5 3 C5 4.32 5 5.64 5 7 C9.62 7 14.24 7 19 7 C19 5.68 19 4.36 19 3 C14.38 3 9.76 3 5 3 Z M5 8 C5 9.32 5 10.64 5 12 C5.66 12 6.32 12 7 12 C7 10.68 7 9.36 7 8 C6.34 8 5.68 8 5 8 Z M9 8 C10.485 8.99 10.485 8.99 12 10 C12 10.66 12 11.32 12 12 C12.66 12 13.32 12 14 12 C14 10.68 14 9.36 14 8 C12.35 8 10.7 8 9 8 Z M5 13 C5 14.32 5 15.64 5 17 C5.66 17 6.32 17 7 17 C7 15.68 7 14.36 7 13 C6.34 13 5.68 13 5 13 Z M12 13 C12 14.32 12 15.64 12 17 C12.66 17 13.32 17 14 17 C14 15.68 14 14.36 14 13 C13.34 13 12.68 13 12 13 Z M11 18 C11 19.65 11 21.3 11 23 C11.99 22.67 12.98 22.34 14 22 C13.34 20.68 12.68 19.36 12 18 C11.67 18 11.34 18 11 18 Z M14 18 C14.99 18.99 15.98 19.98 17 21 C17.33 20.01 17.66 19.02 18 18 C16.68 18 15.36 18 14 18 Z " fill="#034487" transform="translate(392,6)"/>
<path d="M0 0 C1.5843317 0.08768248 3.16753567 0.19587329 4.75 0.3125 C6.07257813 0.39951172 6.07257813 0.39951172 7.421875 0.48828125 C10.35415446 1.07029429 11.8402919 1.95635098 14 4 C14 4.66 14 5.32 14 6 C15.65 6.66 17.3 7.32 19 8 C19 8.66 19 9.32 19 10 C14.05 10 9.1 10 4 10 C4 10.99 4 11.98 4 13 C7.3 12.34 10.6 11.68 14 11 C14.66 12.32 15.32 13.64 16 15 C14.02 17.97 14.02 17.97 12 21 C14.31 21.99 16.62 22.98 19 24 C17.68 25.65 16.36 27.3 15 29 C12.27316672 28.53254287 10.13720914 28.0741671 7.6875 26.75 C4.09272616 25.7468073 2.27587665 26.8264697 -1.0625 28.26171875 C-3.4458164 29.16987762 -5.47352433 29.23685709 -8 29 C-4.87567603 26.47650757 -1.61939504 24.72743854 2 23 C2 21.68 2 20.36 2 19 C-1.3 21.64 -4.6 24.28 -8 27 C-8.66 26.67 -9.32 26.34 -10 26 C-9.38511719 25.12988281 -9.38511719 25.12988281 -8.7578125 24.2421875 C-5.78971393 19.93915465 -3.31573874 16.1313811 -2 11 C-2.598125 11.20625 -3.19625 11.4125 -3.8125 11.625 C-6 12 -6 12 -9 10 C-8.01 7.03 -7.02 4.06 -6 1 C-3.03 1.495 -3.03 1.495 0 2 C0 1.34 0 0.68 0 0 Z M6 2 C5.67 4.31 5.34 6.62 5 9 C7.31 9 9.62 9 12 9 C11.01 8.67 10.02 8.34 9 8 C8.87625 7.195625 8.7525 6.39125 8.625 5.5625 C8.315625 4.2940625 8.315625 4.2940625 8 3 C7.34 2.67 6.68 2.34 6 2 Z M-1 4 C0 6 0 6 0 6 Z M-2 6 C-1 9 -1 9 -1 9 Z M3 14 C3 14.99 3 15.98 3 17 C4.32 17.66 5.64 18.32 7 19 C7.66 17.35 8.32 15.7 9 14 C7.02 14 5.04 14 3 14 Z " fill="#034487" transform="translate(369,6)"/>
<path d="M0 0 C8.57142857 -0.28571429 8.57142857 -0.28571429 12 2 C12 4.64 12 7.28 12 10 C12.33 8.68 12.66 7.36 13 6 C15.31 6.33 17.62 6.66 20 7 C20 7.66 20 8.32 20 9 C19.34 9 18.68 9 18 9 C17.7525 9.86625 17.505 10.7325 17.25 11.625 C16 15 16 15 13.9375 18.0625 C12.07831896 20.88125835 11.38898461 22.69363079 11 26 C11.66 26 12.32 26 13 26 C13.66 24.68 14.32 23.36 15 22 C16.65 23.65 18.3 25.3 20 27 C10.43 27 0.86 27 -9 27 C-9 26.67 -9 26.34 -9 26 C-6.03 26 -3.06 26 0 26 C-0.33 24.35 -0.66 22.7 -1 21 C-1.99 21 -2.98 21 -4 21 C-4.6700834 18.87607494 -5.33596797 16.75082476 -6 14.625 C-6.37125 13.44164062 -6.7425 12.25828125 -7.125 11.0390625 C-8 8 -8 8 -8 6 C-4.28139821 7.53873177 -3.64366459 8.47511388 -1 12 C-0.67 8.04 -0.34 4.08 0 0 Z M5 2 C5 9.92 5 17.84 5 26 C5.33 26 5.66 26 6 26 C6 18.08 6 10.16 6 2 C5.67 2 5.34 2 5 2 Z " fill="#034487" transform="translate(158,6)"/>
<path d="M0 0 C2.97 0.495 2.97 0.495 6 1 C6 2.32 6 3.64 6 5 C9.26545761 6.88391785 12.28111761 7.49287967 16 8 C16 5.69 16 3.38 16 1 C17.98 1 19.96 1 22 1 C21.67 2.32 21.34 3.64 21 5 C21.639375 5.28875 22.27875 5.5775 22.9375 5.875 C25 7 25 7 26 9 C24.35 9 22.7 9 21 9 C21 15.27 21 21.54 21 28 C19.02 28.33 17.04 28.66 15 29 C14.67 28.01 14.34 27.02 14 26 C11.99983534 24.79117904 11.99983534 24.79117904 10 24 C11.98 24 13.96 24 16 24 C15.505 21.525 15.505 21.525 15 19 C13.68 19 12.36 19 11 19 C10.67 18.34 10.34 17.68 10 17 C8.35 17 6.7 17 5 17 C5 20.96 5 24.92 5 29 C3.35 29 1.7 29 0 29 C-0.33 26.36 -0.66 23.72 -1 21 C-1.99 21.33 -2.98 21.66 -4 22 C-3.01 18.04 -2.02 14.08 -1 10 C-1.99 9.34 -2.98 8.68 -4 8 C-2.68 8 -1.36 8 0 8 C0 5.36 0 2.72 0 0 Z M5 9 C5 9.66 5 10.32 5 11 C6.6396875 11.2165625 6.6396875 11.2165625 8.3125 11.4375 C12 12 12 12 15 13 C15.33 13.66 15.66 14.32 16 15 C16 13.02 16 11.04 16 9 C12.37 9 8.74 9 5 9 Z " fill="#034487" transform="translate(213,6)"/>
<path d="M0 0 C2.31 0.66 4.62 1.32 7 2 C6.67 3.32 6.34 4.64 6 6 C9.19902639 6.08886184 11.92677456 5.91058531 15 5 C15.99 6.32 16.98 7.64 18 9 C16.68 10.32 15.36 11.64 14 13 C14.66 14.32 15.32 15.64 16 17 C14.02 17.33 12.04 17.66 10 18 C10.763125 18.763125 11.52625 19.52625 12.3125 20.3125 C14.20833333 22.20833333 16.10416667 24.10416667 18 26 C16.68 27.32 15.36 28.64 14 30 C10.93224489 28.57568513 8.78959901 27.09219926 6 25 C3.36 26.98 0.72 28.96 -2 31 C-5.375 26.5 -5.375 26.5 -5 22 C-5.99 22.66 -6.98 23.32 -8 24 C-8.99 23.67 -9.98 23.34 -11 23 C-10.60167969 22.57589844 -10.20335937 22.15179687 -9.79296875 21.71484375 C-6.14137539 17.67232555 -3.87842746 14.11349698 -2 9 C-2.99 8.67 -3.98 8.34 -5 8 C-5 9.65 -5 11.3 -5 13 C-6.65 13 -8.3 13 -10 13 C-9.63803085 10.32142828 -9.26012724 8.39019086 -7.75 6.125 C-6 5 -6 5 -3.3125 5.3125 C-2.549375 5.539375 -1.78625 5.76625 -1 6 C-0.67 4.02 -0.34 2.04 0 0 Z M5 8 C4.67 8.66 4.34 9.32 4 10 C4.93578995 12.35981813 5.93347808 14.69631264 7 17 C10.50177065 13.15096452 10.50177065 13.15096452 11 8 C9.02 8 7.04 8 5 8 Z M3 13 C1.82428549 16.67410785 1.92633254 20.16929183 2 24 C3.32 23.67 4.64 23.34 6 23 C5.34 19.7 4.68 16.4 4 13 C3.67 13 3.34 13 3 13 Z " fill="#034487" transform="translate(190,5)"/>
<path d="M0 0 C2.31 0.66 4.62 1.32 7 2 C6.67 3.32 6.34 4.64 6 6 C9.19902639 6.08886184 11.92677456 5.91058531 15 5 C15.99 6.32 16.98 7.64 18 9 C16.68 10.32 15.36 11.64 14 13 C14.66 14.32 15.32 15.64 16 17 C14.02 17.33 12.04 17.66 10 18 C10.763125 18.763125 11.52625 19.52625 12.3125 20.3125 C14.20833333 22.20833333 16.10416667 24.10416667 18 26 C16.68 27.32 15.36 28.64 14 30 C10.93224489 28.57568513 8.78959901 27.09219926 6 25 C3.36 26.98 0.72 28.96 -2 31 C-5.375 26.5 -5.375 26.5 -5 22 C-5.99 22.66 -6.98 23.32 -8 24 C-8.99 23.67 -9.98 23.34 -11 23 C-10.60167969 22.57589844 -10.20335938 22.15179687 -9.79296875 21.71484375 C-6.14137539 17.67232555 -3.87842746 14.11349698 -2 9 C-2.99 8.67 -3.98 8.34 -5 8 C-5 9.65 -5 11.3 -5 13 C-6.65 13 -8.3 13 -10 13 C-9.63803085 10.32142828 -9.26012724 8.39019086 -7.75 6.125 C-6 5 -6 5 -3.3125 5.3125 C-2.549375 5.539375 -1.78625 5.76625 -1 6 C-0.67 4.02 -0.34 2.04 0 0 Z M5 8 C4.67 8.66 4.34 9.32 4 10 C4.93578995 12.35981813 5.93347808 14.69631264 7 17 C10.50177065 13.15096452 10.50177065 13.15096452 11 8 C9.02 8 7.04 8 5 8 Z M3 13 C1.82428549 16.67410785 1.92633254 20.16929183 2 24 C3.32 23.67 4.64 23.34 6 23 C5.34 19.7 4.68 16.4 4 13 C3.67 13 3.34 13 3 13 Z " fill="#034487" transform="translate(130,5)"/>
<path d="M0 0 C5.445 1.485 5.445 1.485 11 3 C11.33 2.34 11.66 1.68 12 1 C13.36125 1.2784375 13.36125 1.2784375 14.75 1.5625 C17.68314324 1.95734621 19.2644657 1.94691572 22 1 C22.99 2.32 23.98 3.64 25 5 C23.69791667 6.49739583 22.39583333 7.99479167 21.09375 9.4921875 C19.80427542 10.95936421 19.80427542 10.95936421 20 13 C20.474375 13.4125 20.94875 13.825 21.4375 14.25 C23.64136801 16.71833217 23.79659179 18.74546867 24 22 C23.34 22.99 22.68 23.98 22 25 C19.375 25.1875 19.375 25.1875 17 25 C17 25.99 17 26.98 17 28 C15.35 28.33 13.7 28.66 12 29 C12 24.05 12 19.1 12 14 C6.39 14 0.78 14 -5 14 C-4.01 13.34 -3.02 12.68 -2 12 C-2.57452746 8.06924356 -2.57452746 8.06924356 -5 5 C-3.02 5 -1.04 5 1 5 C0.67 3.35 0.34 1.7 0 0 Z M17 4 C18 7 18 7 18 7 Z M0 6 C0.99 7.485 0.99 7.485 2 9 C2 10.32 2 11.64 2 13 C2.66 13 3.32 13 4 13 C4 10.69 4 8.38 4 6 C2.68 6 1.36 6 0 6 Z M9 6 C9.34444881 8.47266765 9.34444881 8.47266765 10 11 C10.66 11.33 11.32 11.66 12 12 C12 10.02 12 8.04 12 6 C11.01 6 10.02 6 9 6 Z M17 14 C17 15.98 17 17.96 17 20 C17.66 20 18.32 20 19 20 C18.67 18.02 18.34 16.04 18 14 C17.67 14 17.34 14 17 14 Z " fill="#034487" transform="translate(244,6)"/>
<path d="M0 0 C6.81420835 0.9022766 11.14356155 2.01903749 16 7 C17.46650366 9.93300732 17.36440295 11.72037344 17 15 C14.14373143 21.74358044 8.76703291 26.66932547 3 31 C2.01 31.33 1.02 31.66 0 32 C-0.08150744 29.93816367 -0.1394194 27.87538651 -0.1875 25.8125 C-0.22230469 24.66394531 -0.25710937 23.51539062 -0.29296875 22.33203125 C0.02715922 18.69110914 1.04209403 17.01455364 3 14 C2.78233633 10.29971764 2.64508959 8.64508959 0 6 C-0.125 2.875 -0.125 2.875 0 0 Z " fill="#60B648" transform="translate(79,11)"/>
<path d="M0 0 C-0.5546875 1.8203125 -0.5546875 1.8203125 -2 4 C-4.39124504 5.1166939 -6.64422282 6.02219538 -9.125 6.875 C-15.17454309 9.11298542 -20.19936419 11.58292015 -25 16 C-25.55816406 16.49757813 -26.11632813 16.99515625 -26.69140625 17.5078125 C-28.2730254 19.00760086 -28.2730254 19.00760086 -28.1875 21.6875 C-28.125625 22.450625 -28.06375 23.21375 -28 24 C-25.36 25.32 -22.72 26.64 -20 28 C-20 28.66 -20 29.32 -20 30 C-33.42413192 30.5864912 -33.42413192 30.5864912 -38 27 C-39.22584856 24.08860966 -39.13674188 22.54696754 -38.375 19.5 C-32.3002115 8.45493001 -18.35549563 3.28020246 -7 -0.375 C-4.15037462 -0.96867195 -2.67230263 -1.06892105 0 0 Z " fill="#0F7386" transform="translate(49,13)"/>
<path d="M0 0 C1.65 0 3.3 0 5 0 C6.33332095 2.6666419 5.67102033 4.16680303 5 7 C7.97 6.34 10.94 5.68 14 5 C14.99 6.32 15.98 7.64 17 9 C16.34 9 15.68 9 15 9 C15 12.3 15 15.6 15 19 C13.35 19.33 11.7 19.66 10 20 C10 19.01 10 18.02 10 17 C8.35 17 6.7 17 5 17 C5 20.63 5 24.26 5 28 C3.35 28.33 1.7 28.66 0 29 C0 25.04 0 21.08 0 17 C-1.65 17 -3.3 17 -5 17 C-5.33 17.99 -5.66 18.98 -6 20 C-7.65 20 -9.3 20 -11 20 C-11 15.05 -11 10.1 -11 5 C-7.37 5.66 -3.74 6.32 0 7 C0 4.69 0 2.38 0 0 Z M-5 8 C-5 10.64 -5 13.28 -5 16 C-3.35 16 -1.7 16 0 16 C0 13.36 0 10.72 0 8 C-1.65 8 -3.3 8 -5 8 Z M5 8 C5 10.64 5 13.28 5 16 C6.65 16 8.3 16 10 16 C10 13.36 10 10.72 10 8 C8.35 8 6.7 8 5 8 Z " fill="#034487" transform="translate(431,6)"/>
<path d="M0 0 C2.31 0 4.62 0 7 0 C6.34 2.97 5.68 5.94 5 9 C5.928125 8.690625 6.85625 8.38125 7.8125 8.0625 C9.875 7.375 11.9375 6.6875 14 6 C15.32 7.32 16.64 8.64 18 10 C12.06 10.495 12.06 10.495 6 11 C8.6125176 16.55159989 10.97415787 19.06100047 16.390625 21.95703125 C16.92171875 22.30121094 17.4528125 22.64539063 18 23 C18 23.66 18 24.32 18 25 C16.37373596 26.38232443 14.7074998 27.71937515 13 29 C8.99027798 25.32442148 6.54664585 21.81033104 4 17 C3.443125 17.9075 2.88625 18.815 2.3125 19.75 C-1.38956615 24.95290378 -4.86641049 27.2883006 -11 29 C-10 26 -10 26 -7.625 23.6875 C-3.67697814 19.64547762 -1.81851103 15.565875 -1 10 C-4.3 10 -7.6 10 -11 10 C-11 9.67 -11 9.34 -11 9 C-7.37 9 -3.74 9 0 9 C0 6.03 0 3.06 0 0 Z " fill="#034487" transform="translate(280,6)"/>
<path d="M0 0 C-2.1787109 5.90545323 -4.22783157 10.15612249 -9.9375 13.1875 C-14.081825 14.90513322 -16.68365665 15.65306767 -21 14 C-24.06989521 12.44221846 -27.05127521 10.77578759 -30 9 C-29.34741211 7.10864258 -29.34741211 7.10864258 -28 5 C-25.52563477 3.97924805 -25.52563477 3.97924805 -22.44140625 3.26171875 C-21.33345703 2.99939453 -20.22550781 2.73707031 -19.08398438 2.46679688 C-17.34084961 2.08104492 -17.34084961 2.08104492 -15.5625 1.6875 C-13.82516602 1.27274414 -13.82516602 1.27274414 -12.05273438 0.84960938 C-3.42317082 -1.14105694 -3.42317082 -1.14105694 0 0 Z " fill="#D68F22" transform="translate(30,52)"/>
<path d="M0 0 C2.97 0.495 2.97 0.495 6 1 C6 6.28 6 11.56 6 17 C11.76878889 17.63638295 11.76878889 17.63638295 14.5 14.9375 C16.40061937 11.96263045 16.40061937 11.96263045 15.25 8.1875 C14.63125 6.6096875 14.63125 6.6096875 14 5 C17.87187551 6.25574341 20.06837517 7.34007927 22 11 C22.1875 14.25 22.1875 14.25 22 17 C20.68 17.33 19.36 17.66 18 18 C17.896875 18.639375 17.79375 19.27875 17.6875 19.9375 C17.460625 20.618125 17.23375 21.29875 17 22 C13.77602808 23.07465731 11.32529214 23.16691803 7.9375 23.1875 C6.87402344 23.20167969 5.81054688 23.21585938 4.71484375 23.23046875 C2 23 2 23 0 21 C-0.22705078 18.84521484 -0.22705078 18.84521484 -0.1953125 16.2109375 C-0.18886719 15.26992188 -0.18242187 14.32890625 -0.17578125 13.359375 C-0.15902344 12.37453125 -0.14226562 11.3896875 -0.125 10.375 C-0.11597656 9.38242187 -0.10695313 8.38984375 -0.09765625 7.3671875 C-0.07404116 4.91121866 -0.04110799 2.45572832 0 0 Z " fill="#034487" transform="translate(456,11)"/>
<path d="M0 0 C7.875 0.875 7.875 0.875 9 2 C11.48341801 2.21110519 13.94956713 2.37594795 16.4375 2.5 C23.73142415 2.86571207 23.73142415 2.86571207 26 4 C25.65302594 6.79405429 25.19339921 7.82613607 23.06640625 9.73828125 C16.45560671 13.89452495 12.66479122 14.53295824 5 13 C4.34 10.03 3.68 7.06 3 4 C2.34 4 1.68 4 1 4 C0.67 2.68 0.34 1.36 0 0 Z " fill="#EDD552" transform="translate(82,53)"/>
<path d="M0 0 C2.42793704 2.16950116 3.6056281 4.00005839 4.6875 7.0625 C5.06455078 8.10083984 5.06455078 8.10083984 5.44921875 9.16015625 C6 11 6 11 6 13 C6.66 13 7.32 13 8 13 C8.99 15.64 9.98 18.28 11 21 C6.17639811 21.19294408 2.50353262 20.75747614 -2 19 C-2.12375 17.7315625 -2.12375 17.7315625 -2.25 16.4375 C-3.15551611 12.28721782 -4.83188132 9.63684423 -7 6 C-7 5.34 -7 4.68 -7 4 C-4.69 2.68 -2.38 1.36 0 0 Z " fill="#25659E" transform="translate(77,44)"/>
<path d="M0 0 C0.66 0 1.32 0 2 0 C2.33 3.3 2.66 6.6 3 10 C2.01 10 1.02 10 0 10 C0 9.01 0 8.02 0 7 C-0.99 7.33 -1.98 7.66 -3 8 C-2.34 8 -1.68 8 -1 8 C-1 8.66 -1 9.32 -1 10 C-8.25 10 -8.25 10 -12 9 C-12 8.34 -12 7.68 -12 7 C-13.65 7 -15.3 7 -17 7 C-17 7.66 -17 8.32 -17 9 C-16.01 8.67 -15.02 8.34 -14 8 C-13.67 8.66 -13.34 9.32 -13 10 C-17.66666667 10 -22.33333333 10 -27 10 C-27 7.03 -27 4.06 -27 1 C-24.125 0.875 -24.125 0.875 -21 1 C-20.34 1.66 -19.68 2.32 -19 3 C-16.31160615 3.26991906 -13.70858064 3.08737357 -11 3 C-11 3.66 -11 4.32 -11 5 C-10.34 5 -9.68 5 -9 5 C-9 4.34 -9 3.68 -9 3 C-6.36 3 -3.72 3 -1 3 C-0.67 2.01 -0.34 1.02 0 0 Z M-25 2 C-25 4.31 -25 6.62 -25 9 C-24.01 8.01 -23.02 7.02 -22 6 C-22.66 4.68 -23.32 3.36 -24 2 C-24.33 2 -24.66 2 -25 2 Z M-17 4 C-17 4.66 -17 5.32 -17 6 C-16.34 5.67 -15.68 5.34 -15 5 C-15.66 4.67 -16.32 4.34 -17 4 Z M-4 4 C-4.33 4.66 -4.66 5.32 -5 6 C-4.34 6 -3.68 6 -3 6 C-3.33 5.34 -3.66 4.68 -4 4 Z " fill="#034487" transform="translate(198,47)"/>
<path d="M0 0 C2.875 -0.125 2.875 -0.125 6 0 C6.66 0.66 7.32 1.32 8 2 C10.5 2.16666667 10.5 2.16666667 13 2 C18 2 23 2 28 2 C28 3.98 28 5.96 28 8 C26.68 8.33 25.36 8.66 24 9 C24 9.99 24 10.98 24 12 C23.01 12 22.02 12 21 12 C20.67 11.01 20.34 10.02 20 9 C18.35 9 16.7 9 15 9 C14.67 8.01 14.34 7.02 14 6 C13.01 6.33 12.02 6.66 11 7 C11.66 7 12.32 7 13 7 C13 7.66 13 8.32 13 9 C10.625 9.1875 10.625 9.1875 8 9 C7.34 8.01 6.68 7.02 6 6 C4.68 6 3.36 6 2 6 C2 6.99 2 7.98 2 9 C1.34 9 0.68 9 0 9 C0 6.03 0 3.06 0 0 Z M2 1 C2.33 2.32 2.66 3.64 3 5 C3.66 4.01 4.32 3.02 5 2 C4.01 1.67 3.02 1.34 2 1 Z M10 3 C9.67 3.66 9.34 4.32 9 5 C9.66 5 10.32 5 11 5 C10.67 4.34 10.34 3.68 10 3 Z M17 3 C16.67 4.32 16.34 5.64 16 7 C16.99 7.495 16.99 7.495 18 8 C18.33 7.01 18.66 6.02 19 5 C18.34 4.34 17.68 3.68 17 3 Z M24 3 C24 4.65 24 6.3 24 8 C24.66 7.67 25.32 7.34 26 7 C25.67 5.68 25.34 4.36 25 3 C24.67 3 24.34 3 24 3 Z " fill="#034487" transform="translate(194,66)"/>
<path d="M0 0 C3.625 -0.1875 3.625 -0.1875 7 0 C7 0.66 7 1.32 7 2 C9.97 2.33 12.94 2.66 16 3 C16 5.31 16 7.62 16 10 C12.7 10 9.4 10 6 10 C6.33 8.35 6.66 6.7 7 5 C6.34 4.67 5.68 4.34 5 4 C5 5.98 5 7.96 5 10 C4.34 10 3.68 10 3 10 C3 8.02 3 6.04 3 4 C2.34 4 1.68 4 1 4 C1 5.98 1 7.96 1 10 C-0.65 10 -2.3 10 -4 10 C-4 9.01 -4 8.02 -4 7 C-4.45375 7.495 -4.9075 7.99 -5.375 8.5 C-7 10 -7 10 -9 10 C-8.34 7.03 -7.68 4.06 -7 1 C-3 2 -3 2 -2 3 C-1.34 2.01 -0.68 1.02 0 0 Z M9 7 C10 9 10 9 10 9 Z " fill="#034487" transform="translate(129,65)"/>
<path d="M0 0 C2.31 0 4.62 0 7 0 C7.33 0.66 7.66 1.32 8 2 C12.29 2 16.58 2 21 2 C21 3.98 21 5.96 21 8 C19.68 8.33 18.36 8.66 17 9 C17 9.99 17 10.98 17 12 C16.01 12 15.02 12 14 12 C14 11.01 14 10.02 14 9 C13.06027344 9.03480469 13.06027344 9.03480469 12.1015625 9.0703125 C10.87566406 9.09738281 10.87566406 9.09738281 9.625 9.125 C8.81289062 9.14820312 8.00078125 9.17140625 7.1640625 9.1953125 C5 9 5 9 3 7 C2.67 7.66 2.34 8.32 2 9 C1.34 9 0.68 9 0 9 C0 6.03 0 3.06 0 0 Z M2 1 C2 1.99 2 2.98 2 4 C2.99 3.67 3.98 3.34 5 3 C4.67 2.34 4.34 1.68 4 1 C3.34 1 2.68 1 2 1 Z M10 3 C10 3.66 10 4.32 10 5 C10.66 4.67 11.32 4.34 12 4 C11.34 3.67 10.68 3.34 10 3 Z M17 3 C17 4.65 17 6.3 17 8 C17.66 7.67 18.32 7.34 19 7 C18.67 5.68 18.34 4.36 18 3 C17.67 3 17.34 3 17 3 Z M6 5 C7 7 7 7 7 7 Z M10 6 C10 6.66 10 7.32 10 8 C11.32 8 12.64 8 14 8 C14 7.34 14 6.68 14 6 C12.68 6 11.36 6 10 6 Z " fill="#034487" transform="translate(247,66)"/>
<path d="M0 0 C0.94875 0.04125 1.8975 0.0825 2.875 0.125 C2.875 0.785 2.875 1.445 2.875 2.125 C1.225 2.125 -0.425 2.125 -2.125 2.125 C-2.125 3.775 -2.125 5.425 -2.125 7.125 C-0.475 7.125 1.175 7.125 2.875 7.125 C3.205 5.475 3.535 3.825 3.875 2.125 C8.165 2.125 12.455 2.125 16.875 2.125 C16.875 1.465 16.875 0.805 16.875 0.125 C17.535 0.125 18.195 0.125 18.875 0.125 C18.875 0.785 18.875 1.445 18.875 2.125 C19.535 2.455 20.195 2.785 20.875 3.125 C20.215 3.125 19.555 3.125 18.875 3.125 C19.535 5.105 20.195 7.085 20.875 9.125 C18.565 9.125 16.255 9.125 13.875 9.125 C13.875 7.475 13.875 5.825 13.875 4.125 C13.215 4.125 12.555 4.125 11.875 4.125 C11.875 5.775 11.875 7.425 11.875 9.125 C11.215 9.125 10.555 9.125 9.875 9.125 C9.875 8.135 9.875 7.145 9.875 6.125 C8.885 6.455 7.895 6.785 6.875 7.125 C7.535 7.125 8.195 7.125 8.875 7.125 C8.875 7.785 8.875 8.445 8.875 9.125 C6.91696493 9.17889087 4.95851091 9.21774217 3 9.25 C1.90945312 9.27320313 0.81890625 9.29640625 -0.3046875 9.3203125 C-3.125 9.125 -3.125 9.125 -5.125 7.125 C-5.375 4.625 -5.375 4.625 -5.125 2.125 C-3.125 0.125 -3.125 0.125 0 0 Z M5.875 3.125 C5.545 3.785 5.215 4.445 4.875 5.125 C5.535 5.125 6.195 5.125 6.875 5.125 C6.545 4.465 6.215 3.805 5.875 3.125 Z " fill="#034487" transform="translate(253.125,47.875)"/>
<path d="M0 0 C0.99 0 1.98 0 3 0 C3.66 0.99 4.32 1.98 5 3 C5.33 2.67 5.66 2.34 6 2 C8.18639453 1.92741054 10.37500389 1.91626217 12.5625 1.9375 C14.35880859 1.95103516 14.35880859 1.95103516 16.19140625 1.96484375 C17.11824219 1.97644531 18.04507812 1.98804688 19 2 C19 4.31 19 6.62 19 9 C18.34 9 17.68 9 17 9 C17 7.02 17 5.04 17 3 C16.01 3.495 16.01 3.495 15 4 C14.34444881 6.52733235 14.34444881 6.52733235 14 9 C13.34 9 12.68 9 12 9 C11.67 9.99 11.34 10.98 11 12 C9.02 12 7.04 12 5 12 C5 11.01 5 10.02 5 9 C4.01 8.67 3.02 8.34 2 8 C2 7.34 2 6.68 2 6 C1.34 6 0.68 6 0 6 C-0.33 6.99 -0.66 7.98 -1 9 C-1.66 9 -2.32 9 -3 9 C-2.01 6.03 -1.02 3.06 0 0 Z M11 3 C11 4.32 11 5.64 11 7 C10.01 7.33 9.02 7.66 8 8 C9.32 8 10.64 8 12 8 C12 6.35 12 4.7 12 3 C11.67 3 11.34 3 11 3 Z M7 9 C7 9.66 7 10.32 7 11 C7.66 11 8.32 11 9 11 C9 10.34 9 9.68 9 9 C8.34 9 7.68 9 7 9 Z " fill="#034487" transform="translate(359,48)"/>
<path d="M0 0 C6.22881356 3.73728814 6.22881356 3.73728814 8 7 C8.93092433 12.12008383 7.07426857 15.10113339 4.38671875 19.265625 C3 21 3 21 0 23 C0 15.41 0 7.82 0 0 Z " fill="#87BF34" transform="translate(88,13)"/>
<path d="M0 0 C1.2375 0.185625 2.475 0.37125 3.75 0.5625 C6.76279577 0.94711223 9.10010827 1.0874594 12 0 C14.23551759 3.35327639 14.17283528 3.90743657 13.625 7.6875 C13.45871094 8.89986328 13.45871094 8.89986328 13.2890625 10.13671875 C13.19367188 10.75160156 13.09828125 11.36648437 13 12 C11.35 12 9.7 12 8 12 C8 11.34 8 10.68 8 10 C7.01 10 6.02 10 5 10 C4.67 10.99 4.34 11.98 4 13 C2.68 13 1.36 13 0 13 C0 8.71 0 4.42 0 0 Z M5 3 C5 4.98 5 6.96 5 9 C5.99 9 6.98 9 8 9 C8 7.02 8 5.04 8 3 C7.01 3 6.02 3 5 3 Z " fill="#034487" transform="translate(241,21)"/>
<path d="M0 0 C0.66 0 1.32 0 2 0 C2 3.3 2 6.6 2 10 C-0.97 10 -3.94 10 -7 10 C-7.33 8.35 -7.66 6.7 -8 5 C-8.33 6.65 -8.66 8.3 -9 10 C-12.3 10 -15.6 10 -19 10 C-18.67 7.69 -18.34 5.38 -18 3 C-12 3 -6 3 0 3 C0 2.01 0 1.02 0 0 Z M-2 4 C-2.33 4.99 -2.66 5.98 -3 7 C-2.34 7.66 -1.68 8.32 -1 9 C-0.67 7.68 -0.34 6.36 0 5 C-0.66 4.67 -1.32 4.34 -2 4 Z M-16 7 C-15 9 -15 9 -15 9 Z " fill="#034487" transform="translate(440,47)"/>
<path d="M0 0 C0.66 0 1.32 0 2 0 C2 0.66 2 1.32 2 2 C2.60328125 2 3.2065625 2 3.828125 2 C7.55208333 2 11.27604167 2 15 2 C14.34 4.97 13.68 7.94 13 11 C11.35 11.33 9.7 11.66 8 12 C8.66 11.67 9.32 11.34 10 11 C9.34 8.69 8.68 6.38 8 4 C7.67 5.65 7.34 7.3 7 9 C2.71 9 -1.58 9 -6 9 C-6 8.34 -6 7.68 -6 7 C-5.01 6.67 -4.02 6.34 -3 6 C-3.99 6 -4.98 6 -6 6 C-6 4.68 -6 3.36 -6 2 C-4.02 2 -2.04 2 0 2 C0 1.34 0 0.68 0 0 Z M2 3 C2.33 4.65 2.66 6.3 3 8 C3.33 8 3.66 8 4 8 C4 6.35 4 4.7 4 3 C3.34 3 2.68 3 2 3 Z M-1 3 C-1.66 3.66 -2.32 4.32 -3 5 C-2.01 5.33 -1.02 5.66 0 6 C-0.33 5.01 -0.66 4.02 -1 3 Z " fill="#034487" transform="translate(325,48)"/>
<path d="M0 0 C5.61 0 11.22 0 17 0 C17 2.31 17 4.62 17 7 C12.05 7 7.1 7 2 7 C2 7.99 2 8.98 2 10 C1.34 10 0.68 10 0 10 C0 6.7 0 3.4 0 0 Z M2 2 C2 2.99 2 3.98 2 5 C2.66 5 3.32 5 4 5 C4 4.01 4 3.02 4 2 C3.34 2 2.68 2 2 2 Z " fill="#034487" transform="translate(209,50)"/>
<path d="M0 0 C2.97 0.495 2.97 0.495 6 1 C6 1.66 6 2.32 6 3 C7.32 3 8.64 3 10 3 C10.33 4.65 10.66 6.3 11 8 C11.33 6.35 11.66 4.7 12 3 C12.99 3 13.98 3 15 3 C15 5.31 15 7.62 15 10 C10.05 10 5.1 10 0 10 C0 6.7 0 3.4 0 0 Z M6 4 C6 5.65 6 7.3 6 9 C6.66 9 7.32 9 8 9 C8 7.35 8 5.7 8 4 C7.34 4 6.68 4 6 4 Z " fill="#034487" transform="translate(392,47)"/>
<path d="M0 0 C0 0.99 0 1.98 0 3 C1.32 3.33 2.64 3.66 4 4 C4 5.98 4 7.96 4 10 C3.34 10 2.68 10 2 10 C1.67 8.35 1.34 6.7 1 5 C0.67 6.65 0.34 8.3 0 10 C-1.45792884 10.05399736 -2.91642712 10.09279177 -4.375 10.125 C-5.18710937 10.14820312 -5.99921875 10.17140625 -6.8359375 10.1953125 C-9 10 -9 10 -11 8 C-11.25 5.5 -11.25 5.5 -11 3 C-7.88866897 -0.11133103 -4.26881718 0 0 0 Z M-8 3 C-8 4.65 -8 6.3 -8 8 C-6.35 8 -4.7 8 -3 8 C-3 6.35 -3 4.7 -3 3 C-4.65 3 -6.3 3 -8 3 Z " fill="#034487" transform="translate(323,65)"/>
<path d="M0 0 C1.98 0 3.96 0 6 0 C6.66 1.32 7.32 2.64 8 4 C8 3.34 8 2.68 8 2 C9.66611905 1.957279 11.33382885 1.95936168 13 2 C14 3 14 3 14 9 C9.38 9 4.76 9 0 9 C0 6.03 0 3.06 0 0 Z M2 1 C2 3.31 2 5.62 2 8 C2.99 7.01 3.98 6.02 5 5 C4.34 3.68 3.68 2.36 3 1 C2.67 1 2.34 1 2 1 Z M10 6 C11 8 11 8 11 8 Z " fill="#034487" transform="translate(142,48)"/>
<path d="M0 0 C5.625 -0.25 5.625 -0.25 9 2 C9.6875 4.625 9.6875 4.625 10 7 C10.33 5.35 10.66 3.7 11 2 C11.99 2 12.98 2 14 2 C14 4.31 14 6.62 14 9 C10.7 9 7.4 9 4 9 C3.67 8.34 3.34 7.68 3 7 C2.67 7.66 2.34 8.32 2 9 C1.34 9 0.68 9 0 9 C0 6.03 0 3.06 0 0 Z M2 1 C2 1.99 2 2.98 2 4 C2.99 3.67 3.98 3.34 5 3 C4.67 2.34 4.34 1.68 4 1 C3.34 1 2.68 1 2 1 Z M6 4 C5.67 4.66 5.34 5.32 5 6 C5.66 6.66 6.32 7.32 7 8 C6.67 6.68 6.34 5.36 6 4 Z " fill="#034487" transform="translate(446,48)"/>
<path d="M0 0 C0.66 0 1.32 0 2 0 C2 0.99 2 1.98 2 3 C3.32 3 4.64 3 6 3 C6.33 2.01 6.66 1.02 7 0 C8.98 0 10.96 0 13 0 C13 0.66 13 1.32 13 2 C12.01 2 11.02 2 10 2 C10 4.64 10 7.28 10 10 C6.7 10 3.4 10 0 10 C0 6.7 0 3.4 0 0 Z M3 4 C2.67 5.32 2.34 6.64 2 8 C2.99 8.495 2.99 8.495 4 9 C4.33 8.01 4.66 7.02 5 6 C4.34 5.34 3.68 4.68 3 4 Z " fill="#034487" transform="translate(276,65)"/>
<path d="M0 0 C2.27076842 -0.02699725 4.54162821 -0.04639453 6.8125 -0.0625 C8.07707031 -0.07410156 9.34164062 -0.08570313 10.64453125 -0.09765625 C14 0 14 0 17 1 C17 2.65 17 4.3 17 6 C11.39 5.34 5.78 4.68 0 4 C0 2.68 0 1.36 0 0 Z " fill="#059B73" transform="translate(62,10)"/>
<path d="M0 0 C0.66 0 1.32 0 2 0 C2.33 1.32 2.66 2.64 3 4 C3.33 3.67 3.66 3.34 4 3 C5.66617115 2.95936168 7.33388095 2.957279 9 3 C9 2.01 9 1.02 9 0 C9.99 0 10.98 0 12 0 C11.67 1.32 11.34 2.64 11 4 C10.34 4 9.68 4 9 4 C9 4.99 9 5.98 9 7 C8.01 7.495 8.01 7.495 7 8 C7.66 8 8.32 8 9 8 C9 8.66 9 9.32 9 10 C6.03 10 3.06 10 0 10 C0 6.7 0 3.4 0 0 Z " fill="#034487" transform="translate(223,65)"/>
<path d="M0 0 C0.99 0 1.98 0 3 0 C3 1.32 3 2.64 3 4 C2.34 4 1.68 4 1 4 C1 5.98 1 7.96 1 10 C-1.97 10 -4.94 10 -8 10 C-9.125 5.25 -9.125 5.25 -8 3 C-5.69 3 -3.38 3 -1 3 C-0.67 2.01 -0.34 1.02 0 0 Z M-6 5 C-6 5.99 -6 6.98 -6 8 C-5.34 8 -4.68 8 -4 8 C-4 7.01 -4 6.02 -4 5 C-4.66 5 -5.32 5 -6 5 Z " fill="#034487" transform="translate(167,65)"/>
<path d="M0 0 C1.65322266 0.01740234 1.65322266 0.01740234 3.33984375 0.03515625 C4.99693359 0.04869141 4.99693359 0.04869141 6.6875 0.0625 C7.54214844 0.07410156 8.39679688 0.08570313 9.27734375 0.09765625 C9.27734375 2.40765625 9.27734375 4.71765625 9.27734375 7.09765625 C8.61734375 7.09765625 7.95734375 7.09765625 7.27734375 7.09765625 C6.94734375 5.44765625 6.61734375 3.79765625 6.27734375 2.09765625 C5.94734375 3.74765625 5.61734375 5.39765625 5.27734375 7.09765625 C4.61734375 7.09765625 3.95734375 7.09765625 3.27734375 7.09765625 C3.27734375 6.10765625 3.27734375 5.11765625 3.27734375 4.09765625 C2.28734375 4.42765625 1.29734375 4.75765625 0.27734375 5.09765625 C0.93734375 5.09765625 1.59734375 5.09765625 2.27734375 5.09765625 C2.27734375 5.75765625 2.27734375 6.41765625 2.27734375 7.09765625 C0.6112247 7.14037725 -1.0564851 7.13829457 -2.72265625 7.09765625 C-3.72265625 6.09765625 -3.72265625 6.09765625 -3.84765625 3.59765625 C-3.6726072 0.09667528 -3.52616912 0.12647665 0 0 Z M-0.72265625 1.09765625 C-1.05265625 1.75765625 -1.38265625 2.41765625 -1.72265625 3.09765625 C-1.06265625 3.09765625 -0.40265625 3.09765625 0.27734375 3.09765625 C-0.05265625 2.43765625 -0.38265625 1.77765625 -0.72265625 1.09765625 Z " fill="#034487" transform="translate(230.72265625,49.90234375)"/>
<path d="M0 0 C0.66 0 1.32 0 2 0 C2 0.99 2 1.98 2 3 C3.32 3 4.64 3 6 3 C6 5.31 6 7.62 6 10 C5.34 10 4.68 10 4 10 C3.67 8.35 3.34 6.7 3 5 C2.67 6.65 2.34 8.3 2 10 C0.02 10 -1.96 10 -4 10 C-5.125 3.25 -5.125 3.25 -4 1 C-3.34 1 -2.68 1 -2 1 C-2 1.66 -2 2.32 -2 3 C-1.34 3 -0.68 3 0 3 C0 2.01 0 1.02 0 0 Z M-2 4 C-2 5.65 -2 7.3 -2 9 C-1.34 9 -0.68 9 0 9 C0 7.35 0 5.7 0 4 C-0.66 4 -1.32 4 -2 4 Z " fill="#034487" transform="translate(177,65)"/>
<path d="M0 0 C0.99 0 1.98 0 3 0 C3 0.99 3 1.98 3 3 C3.66 3 4.32 3 5 3 C5 2.01 5 1.02 5 0 C5.99 0 6.98 0 8 0 C8 2.97 8 5.94 8 9 C7.236875 8.814375 6.47375 8.62875 5.6875 8.4375 C2.91032625 7.77180827 2.91032625 7.77180827 0 9 C0 6.03 0 3.06 0 0 Z " fill="#034487" transform="translate(296,48)"/>
<path d="M0 0 C1.134375 0.020625 2.26875 0.04125 3.4375 0.0625 C3.4375 1.7125 3.4375 3.3625 3.4375 5.0625 C4.0975 5.0625 4.7575 5.0625 5.4375 5.0625 C5.4375 3.4125 5.4375 1.7625 5.4375 0.0625 C6.0975 0.0625 6.7575 0.0625 7.4375 0.0625 C7.4375 2.3725 7.4375 4.6825 7.4375 7.0625 C3.4775 7.0625 -0.4825 7.0625 -4.5625 7.0625 C-4.5625 0.08004386 -4.5625 0.08004386 0 0 Z M-1.5625 1.0625 C-1.8925 2.3825 -2.2225 3.7025 -2.5625 5.0625 C-1.5725 5.5575 -1.5725 5.5575 -0.5625 6.0625 C0.0975 5.7325 0.7575 5.4025 1.4375 5.0625 C1.4375 4.0725 1.4375 3.0825 1.4375 2.0625 C0.4475 1.7325 -0.5425 1.4025 -1.5625 1.0625 Z " fill="#034487" transform="translate(383.5625,49.9375)"/>
<path d="M0 0 C3.63 0 7.26 0 11 0 C10.34 2.31 9.68 4.62 9 7 C6.03 7 3.06 7 0 7 C-1.125 2.25 -1.125 2.25 0 0 Z M2 1 C2 1.66 2 2.32 2 3 C2.66 2.67 3.32 2.34 4 2 C3.34 1.67 2.68 1.34 2 1 Z M2 4 C2 4.66 2 5.32 2 6 C3.32 6 4.64 6 6 6 C6 5.34 6 4.68 6 4 C4.68 4 3.36 4 2 4 Z " fill="#034487" transform="translate(275,50)"/>
<path d="M0 0 C0.66 0 1.32 0 2 0 C2 0.66 2 1.32 2 2 C4.64 2 7.28 2 10 2 C10 4.31 10 6.62 10 9 C6.7 9 3.4 9 0 9 C-1.125 2.25 -1.125 2.25 0 0 Z M2 3 C2 4.65 2 6.3 2 8 C2.66 8 3.32 8 4 8 C4 7.01 4 6.02 4 5 C4.66 4.67 5.32 4.34 6 4 C4.68 3.67 3.36 3.34 2 3 Z M6 6 C6.33 6.66 6.66 7.32 7 8 C7.33 7.34 7.66 6.68 8 6 C7.34 6 6.68 6 6 6 Z " fill="#034487" transform="translate(157,48)"/>
<path d="M0 0 C0.33 0 0.66 0 1 0 C1 5.28 1 10.56 1 16 C-0.98 16.99 -0.98 16.99 -3 18 C-3.08150744 15.93816367 -3.1394194 13.87538651 -3.1875 11.8125 C-3.22230469 10.66394531 -3.25710937 9.51539063 -3.29296875 8.33203125 C-2.97545546 4.72084678 -2.15237035 2.87886312 0 0 Z " fill="#27AE55" transform="translate(82,25)"/>
<path d="M0 0 C0.66 0 1.32 0 2 0 C3.23887548 2.47775095 3.16741669 4.23653707 3.1875 7 C3.20167969 7.886875 3.21585937 8.77375 3.23046875 9.6875 C3 12 3 12 1 14 C-1.125 13.625 -1.125 13.625 -3 13 C-2.343621 8.51474352 -1.29925791 4.33085971 0 0 Z " fill="#034487" transform="translate(452,15)"/>
<path d="M0 0 C3.3 0 6.6 0 10 0 C10 2.31 10 4.62 10 7 C8.02 7 6.04 7 4 7 C4 5.35 4 3.7 4 2 C3.67 2 3.34 2 3 2 C2.67 3.65 2.34 5.3 2 7 C1.34 7 0.68 7 0 7 C0 4.69 0 2.38 0 0 Z " fill="#034487" transform="translate(461,50)"/>
<path d="M0 0 C2.31 0 4.62 0 7 0 C6.62875 0.7425 6.2575 1.485 5.875 2.25 C4.70484137 4.94283647 4.70484137 4.94283647 5.875 7.3125 C6.431875 8.1478125 6.431875 8.1478125 7 9 C6 10 6 10 2.9375 10.0625 C1.968125 10.041875 0.99875 10.02125 0 10 C-1.231394 6.30581799 -0.64432764 3.7943739 0 0 Z M2 7 C2 7.66 2 8.32 2 9 C2.66 9 3.32 9 4 9 C4 8.34 4 7.68 4 7 C3.34 7 2.68 7 2 7 Z " fill="#034487" transform="translate(132,50)"/>
<path d="M0 0 C6.75 2.625 6.75 2.625 9 6 C8.625 8.1875 8.625 8.1875 8 10 C6.68 10 5.36 10 4 10 C3.32845067 8.71086513 2.66291141 7.41859796 2 6.125 C1.62875 5.40570312 1.2575 4.68640625 0.875 3.9453125 C0 2 0 2 0 0 Z " fill="#034487" transform="translate(461,6)"/>
<path d="M0 0 C2.97 0 5.94 0 9 0 C9.38133299 1.9914056 9.71325582 3.99279077 10 6 C9 7 9 7 6.4375 7.0625 C5.2309375 7.0315625 5.2309375 7.0315625 4 7 C4 6.34 4 5.68 4 5 C4.99 4.67 5.98 4.34 7 4 C6.01 4 5.02 4 4 4 C3.67 3.34 3.34 2.68 3 2 C2.67 3.65 2.34 5.3 2 7 C1.34 7 0.68 7 0 7 C0 4.69 0 2.38 0 0 Z " fill="#034487" transform="translate(146,68)"/>
<path d="M0 0 C1.98 0 3.96 0 6 0 C6.84454356 3.37817425 7.10844919 5.67465243 6 9 C4.02 9 2.04 9 0 9 C0 6.03 0 3.06 0 0 Z M2 1 C2.33 1.99 2.66 2.98 3 4 C3.33 3.01 3.66 2.02 4 1 C3.34 1 2.68 1 2 1 Z M2 5 C2 5.99 2 6.98 2 8 C2.99 7.67 3.98 7.34 5 7 C4.67 6.34 4.34 5.68 4 5 C3.34 5 2.68 5 2 5 Z " fill="#034487" transform="translate(121,48)"/>
<path d="M0 0 C4 4 4 4 4.4375 6.875 C3.94124579 10.41967293 2.76708808 12.90759586 1 16 C0.67 16 0.34 16 0 16 C0 10.72 0 5.44 0 0 Z " fill="#A0C81A" transform="translate(92,16)"/>
<path d="M0 0 C1.98 0 3.96 0 6 0 C6 2.31 6 4.62 6 7 C4.02 7 2.04 7 0 7 C-1.125 2.25 -1.125 2.25 0 0 Z M2 2 C2 2.99 2 3.98 2 5 C2.66 5 3.32 5 4 5 C4 4.01 4 3.02 4 2 C3.34 2 2.68 2 2 2 Z " fill="#034487" transform="translate(202,50)"/>
<path d="M0 0 C1.98 0 3.96 0 6 0 C6 2.31 6 4.62 6 7 C4.02 7 2.04 7 0 7 C0 4.69 0 2.38 0 0 Z " fill="#034487" transform="translate(338,68)"/>
<path d="M0 0 C1.2065625 0.0309375 1.2065625 0.0309375 2.4375 0.0625 C3.5625 4.8125 3.5625 4.8125 2.4375 7.0625 C0.77138095 7.105221 -0.89632885 7.10313832 -2.5625 7.0625 C-3.5625 6.0625 -3.5625 6.0625 -3.6875 3.5625 C-3.51717518 0.15600356 -3.41884482 0.08338646 0 0 Z M-0.5625 1.0625 C-0.8925 2.3825 -1.2225 3.7025 -1.5625 5.0625 C-0.5725 5.5575 -0.5725 5.5575 0.4375 6.0625 C0.7675 5.0725 1.0975 4.0825 1.4375 3.0625 C0.7775 2.4025 0.1175 1.7425 -0.5625 1.0625 Z " fill="#034487" transform="translate(302.5625,67.9375)"/>
<path d="M0 0 C1.2065625 0.0309375 1.2065625 0.0309375 2.4375 0.0625 C2.7675 1.3825 3.0975 2.7025 3.4375 4.0625 C2.4475 4.3925 1.4575 4.7225 0.4375 5.0625 C1.0975 5.0625 1.7575 5.0625 2.4375 5.0625 C2.4375 5.7225 2.4375 6.3825 2.4375 7.0625 C0.77138095 7.105221 -0.89632885 7.10313832 -2.5625 7.0625 C-3.5625 6.0625 -3.5625 6.0625 -3.6875 3.5625 C-3.51717518 0.15600356 -3.41884482 0.08338646 0 0 Z M-0.5625 1.0625 C-0.8925 1.7225 -1.2225 2.3825 -1.5625 3.0625 C-0.9025 3.0625 -0.2425 3.0625 0.4375 3.0625 C0.1075 2.4025 -0.2225 1.7425 -0.5625 1.0625 Z " fill="#034487" transform="translate(187.5625,67.9375)"/>
<path d="M0 0 C1.2065625 0.0309375 1.2065625 0.0309375 2.4375 0.0625 C2.7675 1.3825 3.0975 2.7025 3.4375 4.0625 C2.4475 4.3925 1.4575 4.7225 0.4375 5.0625 C1.0975 5.0625 1.7575 5.0625 2.4375 5.0625 C2.4375 5.7225 2.4375 6.3825 2.4375 7.0625 C0.77138095 7.105221 -0.89632885 7.10313832 -2.5625 7.0625 C-3.5625 6.0625 -3.5625 6.0625 -3.6875 3.5625 C-3.51717518 0.15600356 -3.41884482 0.08338646 0 0 Z M-0.5625 1.0625 C-0.8925 1.7225 -1.2225 2.3825 -1.5625 3.0625 C-0.9025 3.0625 -0.2425 3.0625 0.4375 3.0625 C0.1075 2.4025 -0.2225 1.7425 -0.5625 1.0625 Z " fill="#034487" transform="translate(415.5625,49.9375)"/>
<path d="M0 0 C1.2065625 0.0309375 1.2065625 0.0309375 2.4375 0.0625 C3.5625 4.8125 3.5625 4.8125 2.4375 7.0625 C0.77138095 7.105221 -0.89632885 7.10313832 -2.5625 7.0625 C-3.5625 6.0625 -3.5625 6.0625 -3.6875 3.5625 C-3.51717518 0.15600356 -3.41884482 0.08338646 0 0 Z M-0.5625 1.0625 C-0.8925 2.3825 -1.2225 3.7025 -1.5625 5.0625 C-0.5725 5.5575 -0.5725 5.5575 0.4375 6.0625 C0.7675 5.0725 1.0975 4.0825 1.4375 3.0625 C0.7775 2.4025 0.1175 1.7425 -0.5625 1.0625 Z " fill="#034487" transform="translate(346.5625,49.9375)"/>
<path d="M0 0 C1.65 0 3.3 0 5 0 C5 2.33333333 5 4.66666667 5 7 C3.02 7 1.04 7 -1 7 C-1 5 -1 5 0 4 C0 2.68 0 1.36 0 0 Z " fill="#034487" transform="translate(239,68)"/>
<path d="M0 0 C1.98 0 3.96 0 6 0 C6 2.31 6 4.62 6 7 C5.34 7 4.68 7 4 7 C4 5.35 4 3.7 4 2 C3.34 2 2.68 2 2 2 C2 3.65 2 5.3 2 7 C1.34 7 0.68 7 0 7 C0 4.69 0 2.38 0 0 Z " fill="#034487" transform="translate(309,50)"/>
<path d="M0 0 C1.98 0 3.96 0 6 0 C6 2.31 6 4.62 6 7 C5.34 7 4.68 7 4 7 C3.67 5.35 3.34 3.7 3 2 C2.67 3.65 2.34 5.3 2 7 C1.34 7 0.68 7 0 7 C0 4.69 0 2.38 0 0 Z " fill="#034487" transform="translate(331,68)"/>
<path d="M0 0 C0.66 0 1.32 0 2 0 C2.33 1.65 2.66 3.3 3 5 C3.33 3.35 3.66 1.7 4 0 C4.66 0 5.32 0 6 0 C6 2.31 6 4.62 6 7 C4.02 7 2.04 7 0 7 C0 4.69 0 2.38 0 0 Z " fill="#034487" transform="translate(269,68)"/>
<path d="M0 0 C1.32 0.33 2.64 0.66 4 1 C4 3.97 4 6.94 4 10 C2 8.375 2 8.375 0 6 C-0.25 2.75 -0.25 2.75 0 0 Z " fill="#28AE55" transform="translate(79,11)"/>
<path d="M0 0 C1.2065625 0.0309375 1.2065625 0.0309375 2.4375 0.0625 C2.4375 0.7225 2.4375 1.3825 2.4375 2.0625 C1.4475 2.0625 0.4575 2.0625 -0.5625 2.0625 C-0.2325 3.0525 0.0975 4.0425 0.4375 5.0625 C1.0975 5.0625 1.7575 5.0625 2.4375 5.0625 C2.4375 5.7225 2.4375 6.3825 2.4375 7.0625 C0.4575 7.0625 -1.5225 7.0625 -3.5625 7.0625 C-3.60504356 5.06295254 -3.60330783 3.06208364 -3.5625 1.0625 C-2.5625 0.0625 -2.5625 0.0625 0 0 Z " fill="#034487" transform="translate(293.5625,67.9375)"/>
<path d="M0 0 C1.98 0.495 1.98 0.495 4 1 C3.67 1.99 3.34 2.98 3 4 C2.64763503 5.99673484 2.31165441 7.99650739 2 10 C1.34 10 0.68 10 0 10 C-1.125 3.375 -1.125 3.375 0 0 Z " fill="#034487" transform="translate(307,65)"/>
<path d="M0 0 C1.98 0.495 1.98 0.495 4 1 C3.67 1.99 3.34 2.98 3 4 C2.64763503 5.99673484 2.31165441 7.99650739 2 10 C1.34 10 0.68 10 0 10 C-1.125 3.375 -1.125 3.375 0 0 Z " fill="#034487" transform="translate(351,47)"/>
<path d="M0 0 C0.66 0 1.32 0 2 0 C2 0.66 2 1.32 2 2 C2.66 2.33 3.32 2.66 4 3 C3.34 3 2.68 3 2 3 C2 4.65 2 6.3 2 8 C2.66 8.33 3.32 8.66 4 9 C2.68 9 1.36 9 0 9 C-1.125 2.25 -1.125 2.25 0 0 Z " fill="#034487" transform="translate(242,48)"/>
<path d="M0 0 C0.99 0 1.98 0 3 0 C3 2.31 3 4.62 3 7 C2.01 7 1.02 7 0 7 C0 4.69 0 2.38 0 0 Z " fill="#034487" transform="translate(305,50)"/>
<path d="M0 0 C0.66 0 1.32 0 2 0 C2.33 3.3 2.66 6.6 3 10 C2.01 10 1.02 10 0 10 C0 6.7 0 3.4 0 0 Z " fill="#034487" transform="translate(472,47)"/>
<path d="M0 0 C1.32 0.33 2.64 0.66 4 1 C3.34 2.98 2.68 4.96 2 7 C1.34 7 0.68 7 0 7 C0 4.69 0 2.38 0 0 Z " fill="#034487" transform="translate(408,50)"/>
<path d="M0 0 C0.66 0 1.32 0 2 0 C2 2.31 2 4.62 2 7 C1.34 7 0.68 7 0 7 C0 4.69 0 2.38 0 0 Z " fill="#034487" transform="translate(328,68)"/>
<path d="M0 0 C0.66 0 1.32 0 2 0 C2 2.31 2 4.62 2 7 C1.34 7 0.68 7 0 7 C0 4.69 0 2.38 0 0 Z " fill="#034487" transform="translate(287,68)"/>
<path d="M0 0 C0.66 0 1.32 0 2 0 C2 2.31 2 4.62 2 7 C1.34 7 0.68 7 0 7 C0 4.69 0 2.38 0 0 Z " fill="#034487" transform="translate(316,50)"/>
<path d="M0 0 C0.66 0 1.32 0 2 0 C2 2.31 2 4.62 2 7 C1.34 7 0.68 7 0 7 C0 4.69 0 2.38 0 0 Z " fill="#034487" transform="translate(129,50)"/>
<path d="M0 0 C0.99 0 1.98 0 3 0 C2.67 1.65 2.34 3.3 2 5 C1.34 5 0.68 5 0 5 C0 3.35 0 1.7 0 0 Z " fill="#034487" transform="translate(287,54)"/>
<path d="M0 0 C0.99 0 1.98 0 3 0 C3 0.66 3 1.32 3 2 C2.01 2 1.02 2 0 2 C0 1.34 0 0.68 0 0 Z " fill="#034487" transform="translate(142,65)"/>
<path d="M0 0 C0.99 0 1.98 0 3 0 C3 0.66 3 1.32 3 2 C2.01 2 1.02 2 0 2 C0 1.34 0 0.68 0 0 Z " fill="#034487" transform="translate(305,47)"/>
<path d="M0 0 C0.66 0 1.32 0 2 0 C2 0.66 2 1.32 2 2 C1.01 1.67 0.02 1.34 -1 1 C-0.67 0.67 -0.34 0.34 0 0 Z " fill="#034487" transform="translate(328,65)"/>
<path d="M0 0 C0.66 0 1.32 0 2 0 C2 0.66 2 1.32 2 2 C1.01 1.67 0.02 1.34 -1 1 C-0.67 0.67 -0.34 0.34 0 0 Z " fill="#034487" transform="translate(376,47)"/>
<path d="M0 0 C0.66 0 1.32 0 2 0 C2 0.66 2 1.32 2 2 C1.01 1.67 0.02 1.34 -1 1 C-0.67 0.67 -0.34 0.34 0 0 Z " fill="#034487" transform="translate(129,47)"/>
<path d="M0 0 C0.66 0 1.32 0 2 0 C2 0.66 2 1.32 2 2 C1.34 2 0.68 2 0 2 C0 1.34 0 0.68 0 0 Z " fill="#034487" transform="translate(316,47)"/>
</svg>
