<?xml version="1.0" encoding="UTF-8"?>
<svg version="1.1" xmlns="http://www.w3.org/2000/svg" width="130" height="130">
<path d="M0 0 C7.5971069 3.06549928 11.70567643 8.73310976 15 16 C17.59087878 22.63712774 19.57322918 29.41985954 21.46875 36.28125 C24.80864744 49.73056928 24.80864744 49.73056928 31 62 C31.66 62.33 32.32 62.66 33 63 C33 63.66 33 64.32 33 65 C36.3 65.33 39.6 65.66 43 66 C51.65746976 55.25279616 51.17710627 39.49917682 51.4296875 26.33789062 C51.460625 25.43619141 51.4915625 24.53449219 51.5234375 23.60546875 C51.54325684 22.79231201 51.56307617 21.97915527 51.58349609 21.14135742 C52.09468295 18.51320976 52.85814295 17.57327623 55 16 C57.625 16.1875 57.625 16.1875 60 17 C61.53017965 20.0603593 61.24670508 23.32233889 61.375 26.6875 C61.95230669 38.08809438 62.66138225 50.71140668 70 60 C74.65122152 64.11038181 80.10541979 65.46228342 86 67 C86.1875 69.875 86.1875 69.875 86 73 C82.6054928 75.2630048 81.10991614 75.17073575 77.17578125 74.5234375 C68.9020402 72.53298633 64.11853602 67.61197421 59 61 C58.67 60.34 58.34 59.68 58 59 C57.63648437 59.73605469 57.27296875 60.47210938 56.8984375 61.23046875 C53.53205875 67.76469622 50.74159997 72.62920001 44 76 C38.02673463 76.86748667 33.75042745 76.04349948 28.83984375 72.5234375 C16.7852402 62.54191863 13.7858737 46.53177959 9.97900391 32.03833008 C6.6416801 19.34687322 6.6416801 19.34687322 -2 10 C-3.84267868 8.91431497 -3.84267868 8.91431497 -6 9 C-11.86146909 11.42104158 -13.95459864 15.73808162 -16.5546875 21.33984375 C-23.19219197 38.14887535 -25.6017233 56.19632241 -28 74 C-33.75 75.125 -33.75 75.125 -36 74 C-37.50421731 52.23063287 -31.70712102 26.52028162 -20 8 C-14.01002635 1.35894226 -8.99285424 -1.29939668 0 0 Z " fill="#00459C" transform="translate(40,27)"/>
<path d="M0 0 C7.43066258 3.44226685 12.77801465 8.78716194 16.16015625 16.24609375 C18.38908248 23.55489837 17.37408591 29.87774226 15 37 C19.62 37 24.24 37 29 37 C27.69720228 44.81678633 27.69720228 44.81678633 25 48 C20.92032177 48.96932392 16.84320559 48.84455717 12.65820312 48.81665039 C10.6355228 48.81252148 8.62287437 48.87747167 6.6015625 48.94726562 C-2.86333417 48.97111869 -2.86333417 48.97111869 -6.02832031 46.26708984 C-8.1203316 43.05093577 -9 40.85796924 -9 37 C-3.06 36.505 -3.06 36.505 3 36 C0.03 36 -2.94 36 -6 36 C-5.625 33.5625 -5.625 33.5625 -5 31 C-4.34 30.67 -3.68 30.34 -3 30 C-2.27129528 27.68529088 -1.60760482 25.3494053 -1 23 C-0.67 22.01 -0.34 21.02 0 20 C0.165 18.80375 0.33 17.6075 0.5 16.375 C1 13 1 13 2 12 C1.74672551 9.97089289 1.42269932 7.95037855 1.0625 5.9375 C0.77052734 4.28041016 0.77052734 4.28041016 0.47265625 2.58984375 C0.23869141 1.30787109 0.23869141 1.30787109 0 0 Z M3 13 C4.36983503 16.16115776 4.9890638 16.9927092 8 19 C6.63016497 15.83884224 6.0109362 15.0072908 3 13 Z M8 19 C8.33 19.99 8.66 20.98 9 22 C9 21.01 9 20.02 9 19 C8.67 19 8.34 19 8 19 Z M10 22 C11 24 11 24 11 24 Z " fill="#C60009" transform="translate(28,45)"/>
<path d="M0 0 C12.54 0 25.08 0 38 0 C36.69720228 7.81678633 36.69720228 7.81678633 34 11 C29.92032177 11.96932392 25.84320559 11.84455717 21.65820312 11.81665039 C19.6355228 11.81252148 17.62287437 11.87747167 15.6015625 11.94726562 C6.13666583 11.97111869 6.13666583 11.97111869 2.97167969 9.26708984 C0.8796684 6.05093577 0 3.85796924 0 0 Z " fill="#00479D" transform="translate(19,82)"/>
<path d="M0 0 C2.625 0.25 2.625 0.25 4.5 1.4375 C5.625 3.25 5.625 3.25 5.4375 5.8125 C4.625 8.25 4.625 8.25 2.625 10.25 C0.1875 10.625 0.1875 10.625 -2.375 10.25 C-4.3125 8.5625 -4.3125 8.5625 -5.375 6.25 C-3.74069987 0.39375788 -3.74069987 0.39375788 0 0 Z " fill="#C70009" transform="translate(96.375,28.75)"/>
</svg>
